<?xml version="1.0" encoding="UTF-8"?>
<svg width="1123px" height="458px" viewBox="0 0 1123 458" version="1.1" xmlns="http://www.w3.org/2000/svg" xmlns:xlink="http://www.w3.org/1999/xlink">
    <!-- Generator: Sketch 50.2 (55047) - http://www.bohemiancoding.com/sketch -->
    <title>Group 5</title>
    <desc>Created with Sketch.</desc>
    <defs></defs>
    <g id="Page-1" stroke="none" stroke-width="1" fill="none" fill-rule="evenodd">
        <g id="Header" transform="translate(-10.000000, -5.000000)" fill="#64BDA1">
            <g id="Group">
                <g id="Group-5" transform="translate(10.000000, 5.000000)">
                    <g id="Group-4-Copy" transform="translate(561.500000, 229.000000) scale(1, -1) translate(-561.500000, -229.000000) ">
                        <path d="M185.500058,78 C183.499981,78 183.499981,81 185.500058,81 C187.499981,81 187.499981,78 185.500058,78" id="Fill-9"></path>
                        <path d="M57.5000582,179 C55.4999806,179 55.4999806,182 57.5000582,182 C59.4999806,182 59.4999806,179 57.5000582,179" id="Fill-10"></path>
                        <path d="M518.499942,396 C516.500019,396 516.500019,399 518.499942,399 C520.500019,399 520.500019,396 518.499942,396" id="Fill-11"></path>
                        <path d="M425.500058,277 C423.499981,277 423.499981,280 425.500058,280 C427.499981,280 427.499981,277 425.500058,277" id="Fill-12"></path>
                        <path d="M176.5,145 C174.5,145 174.5,148 176.5,148 C178.5,148 178.5,145 176.5,145" id="Fill-13"></path>
                        <path d="M211.500058,378 C209.499981,378 209.499981,381 211.500058,381 C213.499981,381 213.499981,378 211.500058,378" id="Fill-14"></path>
                        <path d="M554.500058,185 C552.499981,185 552.499981,188 554.500058,188 C556.499981,188 556.499981,185 554.500058,185" id="Fill-15"></path>
                        <path d="M336.5,237 C334.5,237 334.5,240 336.5,240 C338.5,240 338.5,237 336.5,237" id="Fill-16"></path>
                        <path d="M5.50005815,82 C3.49998062,82 3.49998062,85 5.50005815,85 C7.49998062,85 7.49998062,82 5.50005815,82" id="Fill-17"></path>
                        <path d="M369.5,123 C367.5,123 367.5,126 369.5,126 C371.5,126 371.5,123 369.5,123" id="Fill-18"></path>
                        <path d="M435.499942,10 C433.500019,10 433.500019,13 435.499942,13 C437.500019,13 437.500019,10 435.499942,10" id="Fill-19"></path>
                        <path d="M246.499942,325 C244.500019,325 244.500019,328 246.499942,328 C248.500019,328 248.500019,325 246.499942,325" id="Fill-20"></path>
                        <path d="M269.499942,442 C267.500019,442 267.500019,445 269.499942,445 C271.500019,445 271.500019,442 269.499942,442" id="Fill-21"></path>
                        <path d="M475.499942,215 C473.500019,215 473.500019,218 475.499942,218 C477.500019,218 477.500019,215 475.499942,215" id="Fill-22"></path>
                        <path d="M140.500058,452 C138.499981,452 138.499981,455 140.500058,455 C142.499981,455 142.499981,452 140.500058,452" id="Fill-23"></path>
                        <path d="M112.500058,16 C110.499981,16 110.499981,19 112.500058,19 C114.499981,19 114.499981,16 112.500058,16" id="Fill-24"></path>
                        <path d="M398.499942,192 C396.500019,192 396.500019,195 398.499942,195 C400.500019,195 400.500019,192 398.499942,192" id="Fill-25"></path>
                        <path d="M102.500058,405 C100.499981,405 100.499981,408 102.500058,408 C104.499981,408 104.499981,405 102.500058,405" id="Fill-26"></path>
                        <path d="M575.5,76 C573.5,76 573.5,79 575.5,79 C577.5,79 577.5,76 575.5,76" id="Fill-27"></path>
                        <path d="M336.5,161 C334.5,161 334.5,164 336.5,164 C338.5,164 338.5,161 336.5,161" id="Fill-28"></path>
                        <path d="M18.5000582,0 C16.4999806,0 16.4999806,3 18.5000582,3 C20.4999806,3 20.4999806,0 18.5000582,0" id="Fill-29"></path>
                        <path d="M1.49994185,182 C-0.499980616,182 -0.499980616,185 1.49994185,185 C3.50001938,185 3.50001938,182 1.49994185,182" id="Fill-30"></path>
                        <path d="M186.499942,2 C184.500019,2 184.500019,5 186.499942,5 C188.500019,5 188.500019,2 186.499942,2" id="Fill-31"></path>
                        <path d="M7.49994185,443 C5.50001938,443 5.50001938,446 7.49994185,446 C9.50001938,446 9.50001938,443 7.49994185,443" id="Fill-32"></path>
                        <path d="M420.999937,397 C415.666688,397 415.666688,405 420.999937,405 C426.333354,405 426.333354,397 420.999937,397" id="Fill-34"></path>
                        <path d="M241.500058,100 C239.499981,100 239.499981,103 241.500058,103 C243.499981,103 243.499981,100 241.500058,100" id="Fill-35"></path>
                        <path d="M239.500058,9 C237.499981,9 237.499981,12 239.500058,12 C241.499981,12 241.499981,9 239.500058,9" id="Fill-36"></path>
                        <path d="M541.5,133 C539.5,133 539.5,136 541.5,136 C543.5,136 543.5,133 541.5,133" id="Fill-37"></path>
                        <path d="M716.500058,377 C714.499981,377 714.499981,380 716.500058,380 C718.499981,380 718.499981,377 716.500058,377" id="Fill-9"></path>
                        <path d="M1049.49994,59 C1047.50002,59 1047.50002,62 1049.49994,62 C1051.50002,62 1051.50002,59 1049.49994,59" id="Fill-11"></path>
                        <path d="M956.500058,178 C954.499981,178 954.499981,181 956.500058,181 C958.499981,181 958.499981,178 956.500058,178" id="Fill-12"></path>
                        <path d="M707.5,310 C705.5,310 705.5,313 707.5,313 C709.5,313 709.5,310 707.5,310" id="Fill-13"></path>
                        <path d="M742.500058,77 C740.499981,77 740.499981,80 742.500058,80 C744.499981,80 744.499981,77 742.500058,77" id="Fill-14"></path>
                        <path d="M1085.50006,270 C1083.49998,270 1083.49998,273 1085.50006,273 C1087.49998,273 1087.49998,270 1085.50006,270" id="Fill-15"></path>
                        <path d="M867.5,218 C865.5,218 865.5,221 867.5,221 C869.5,221 869.5,218 867.5,218" id="Fill-16"></path>
                        <path d="M536.500058,373 C534.499981,373 534.499981,376 536.500058,376 C538.499981,376 538.499981,373 536.500058,373" id="Fill-17"></path>
                        <path d="M900.5,332 C898.5,332 898.5,335 900.5,335 C902.5,335 902.5,332 900.5,332" id="Fill-18"></path>
                        <path d="M966.499942,445 C964.500019,445 964.500019,448 966.499942,448 C968.500019,448 968.500019,445 966.499942,445" id="Fill-19"></path>
                        <path d="M777.499942,130 C775.500019,130 775.500019,133 777.499942,133 C779.500019,133 779.500019,130 777.499942,130" id="Fill-20"></path>
                        <path d="M800.499942,13 C798.500019,13 798.500019,16 800.499942,16 C802.500019,16 802.500019,13 800.499942,13" id="Fill-21"></path>
                        <path d="M1006.49994,240 C1004.50002,240 1004.50002,243 1006.49994,243 C1008.50002,243 1008.50002,240 1006.49994,240" id="Fill-22"></path>
                        <path d="M671.500058,3 C669.499981,3 669.499981,6 671.500058,6 C673.499981,6 673.499981,3 671.500058,3" id="Fill-23"></path>
                        <path d="M643.500058,439 C641.499981,439 641.499981,442 643.500058,442 C645.499981,442 645.499981,439 643.500058,439" id="Fill-24"></path>
                        <path d="M929.499942,263 C927.500019,263 927.500019,266 929.499942,266 C931.500019,266 931.500019,263 929.499942,263" id="Fill-25"></path>
                        <path d="M633.500058,50 C631.499981,50 631.499981,53 633.500058,53 C635.499981,53 635.499981,50 633.500058,50" id="Fill-26"></path>
                        <path d="M1106.5,379 C1104.5,379 1104.5,382 1106.5,382 C1108.5,382 1108.5,379 1106.5,379" id="Fill-27"></path>
                        <path d="M867.5,294 C865.5,294 865.5,297 867.5,297 C869.5,297 869.5,294 867.5,294" id="Fill-28"></path>
                        <path d="M549.500058,455 C547.499981,455 547.499981,458 549.500058,458 C551.499981,458 551.499981,455 549.500058,455" id="Fill-29"></path>
                        <path d="M532.499942,273 C530.500019,273 530.500019,276 532.499942,276 C534.500019,276 534.500019,273 532.499942,273" id="Fill-30"></path>
                        <path d="M717.499942,453 C715.500019,453 715.500019,456 717.499942,456 C719.500019,456 719.500019,453 717.499942,453" id="Fill-31"></path>
                        <path d="M538.499942,12 C536.500019,12 536.500019,15 538.499942,15 C540.500019,15 540.500019,12 538.499942,12" id="Fill-32"></path>
                        <path d="M1121.49994,172 C1119.50002,172 1119.50002,175 1121.49994,175 C1123.50002,175 1123.50002,172 1121.49994,172" id="Fill-33"></path>
                        <path d="M951.999937,58 C946.666688,58 946.666688,66 951.999937,66 C957.333354,66 957.333354,58 951.999937,58" id="Fill-34"></path>
                        <path d="M772.500058,355 C770.499981,355 770.499981,358 772.500058,358 C774.499981,358 774.499981,355 772.500058,355" id="Fill-35"></path>
                        <path d="M770.500058,446 C768.499981,446 768.499981,449 770.500058,449 C772.499981,449 772.499981,446 770.500058,446" id="Fill-36"></path>
                        <path d="M1072.5,322 C1070.5,322 1070.5,325 1072.5,325 C1074.5,325 1074.5,322 1072.5,322" id="Fill-37"></path>
                        <circle id="Oval" cx="685.5" cy="195.5" r="3.5"></circle>
                        <circle id="Oval-Copy" cx="672.5" cy="140.5" r="2.5"></circle>
                        <circle id="Oval-2" cx="999.5" cy="389.5" r="2.5"></circle>
                    </g>
                </g>
            </g>
        </g>
    </g>
</svg>