<?xml version="1.0" encoding="utf-8"?>
<!-- Generator: Adobe Illustrator 16.0.0, SVG Export Plug-In . SVG Version: 6.00 Build 0)  -->
<!DOCTYPE svg PUBLIC "-//W3C//DTD SVG 1.1//EN" "http://www.w3.org/Graphics/SVG/1.1/DTD/svg11.dtd">
<svg version="1.1" id="Layer_1" xmlns="http://www.w3.org/2000/svg" xmlns:xlink="http://www.w3.org/1999/xlink" x="0px" y="0px"
	 width="64px" height="64px" viewBox="0 0 64 64" enable-background="new 0 0 64 64" xml:space="preserve">
<g>
	<g>
		<path d="M36.672,31.86l-0.743-1.05c-0.588,0.292-1.112,0.467-1.571,0.523c-0.46,0.056-0.945-0.023-1.46-0.237
			c-0.515-0.213-0.984-0.579-1.409-1.097l0.951-0.921c0.483,0.508,0.925,0.824,1.324,0.947c0.57,0.172,1.083,0.137,1.539-0.102
			l-2.364-3.344c-0.504,0.215-1.078,0.35-1.723,0.405c-0.477,0.042-0.926-0.041-1.348-0.247c-0.42-0.208-0.779-0.521-1.077-0.941
			c-0.527-0.747-0.682-1.532-0.463-2.357c0.147-0.555,0.553-1.104,1.224-1.65l-0.354-0.502l0.639-0.424l0.354,0.502
			c0.673-0.36,1.299-0.512,1.882-0.457c0.744,0.066,1.398,0.401,1.966,1.002l-1.006,0.906c-0.356-0.369-0.713-0.597-1.071-0.683
			c-0.359-0.085-0.739-0.046-1.144,0.119l2.142,3.028c0.641-0.23,1.075-0.367,1.305-0.409c0.439-0.08,0.838-0.087,1.197-0.021
			c0.358,0.065,0.695,0.201,1.011,0.409c0.316,0.208,0.591,0.478,0.824,0.809c0.514,0.727,0.704,1.493,0.569,2.295
			c-0.135,0.803-0.569,1.474-1.305,2.012l0.75,1.062L36.672,31.86z M30.17,22.664c-0.377,0.342-0.594,0.725-0.65,1.152
			c-0.057,0.426,0.042,0.819,0.299,1.181c0.253,0.358,0.568,0.589,0.947,0.693c0.377,0.104,0.864,0.064,1.459-0.12L30.17,22.664z
			 M35.942,29.5c0.387-0.331,0.61-0.738,0.67-1.224c0.062-0.486-0.066-0.952-0.383-1.399c-0.27-0.382-0.583-0.624-0.942-0.726
			c-0.357-0.102-0.894-0.052-1.605,0.152L35.942,29.5z" fill="#56a07b"/>
	</g>
	<g>
		<path d="M19.261,35.629c0.796,1.126,0.499,2.662-0.664,3.432c-1.162,0.77-2.75,0.482-3.545-0.644
			c-0.795-1.125-0.497-2.662,0.665-3.432C16.88,34.216,18.467,34.504,19.261,35.629z" fill="#56a07b"/>
		<path d="M51.396,14.346c0.795,1.126,0.498,2.662-0.664,3.432c-1.162,0.77-2.749,0.481-3.546-0.644
			c-0.796-1.125-0.496-2.662,0.665-3.431C49.015,12.934,50.602,13.222,51.396,14.346z" fill="#56a07b"/>
	</g>
	<path fill="none" stroke="#56a07b" stroke-width="2" stroke-miterlimit="10" d="M39.914,21.951
		c2.704,3.826,1.902,8.911-1.793,11.357c-3.693,2.446-8.881,1.329-11.586-2.497c-2.704-3.825-1.901-8.909,1.793-11.356
		C32.021,17.008,37.209,18.126,39.914,21.951z"/>
	<polygon fill="none" stroke="#56a07b" stroke-width="2" stroke-miterlimit="10" points="61.926,21.971 18.58,50.677 4.523,30.794
		47.869,2.087 	"/>
	<polyline fill="none" stroke="#56a07b" stroke-width="2" stroke-miterlimit="10" points="3.533,35.876 18.045,56.404
		61.735,27.469 	"/>
	<polyline fill="none" stroke="#56a07b" stroke-width="2" stroke-miterlimit="10" points="2.098,41.387 16.611,61.914
		60.301,32.979 	"/>
</g>
</svg>
