<?xml version="1.0" encoding="utf-8"?>
<!-- Generator: Adobe Illustrator 16.0.0, SVG Export Plug-In . SVG Version: 6.00 Build 0)  -->
<!DOCTYPE svg PUBLIC "-//W3C//DTD SVG 1.1//EN" "http://www.w3.org/Graphics/SVG/1.1/DTD/svg11.dtd">
<svg version="1.1" id="Layer_1" xmlns="http://www.w3.org/2000/svg" xmlns:xlink="http://www.w3.org/1999/xlink" x="0px" y="0px"
	 width="64px" height="64px" viewBox="0 0 64 64" enable-background="new 0 0 64 64" xml:space="preserve">
<g>
	<path d="M36.04,55.1c-1.246,0-2.461-0.5-3.333-1.371l-20.86-20.89C10.198,31.221,8.9,28.114,8.9,25.771V13.634
		c0-2.609,2.124-4.734,4.734-4.734h12.137c2.365,0,5.416,1.268,7.097,2.948l20.86,20.831c0.877,0.917,1.373,2.135,1.373,3.362
		c0,1.246-0.5,2.461-1.373,3.334L39.403,53.727C38.487,54.605,37.269,55.1,36.04,55.1z M13.634,10.9
		c-1.482,0-2.734,1.252-2.734,2.734v12.137c0,1.81,1.078,4.395,2.355,5.646l20.867,20.897c0.988,0.99,2.824,0.998,3.881-0.016
		l14.309-14.338c0.494-0.494,0.789-1.211,0.789-1.92c0-0.715-0.293-1.432-0.803-1.963L31.454,13.263
		c-1.303-1.303-3.852-2.363-5.683-2.363H13.634z M19.236,23.97c-2.61,0-4.734-2.123-4.734-4.734c0-2.609,2.124-4.734,4.734-4.734
		s4.734,2.125,4.734,4.734C23.97,21.847,21.846,23.97,19.236,23.97z M19.236,16.501c-1.508,0-2.734,1.227-2.734,2.734
		s1.227,2.734,2.734,2.734s2.734-1.227,2.734-2.734S20.744,16.501,19.236,16.501z" fill="#56a07b"/>
</g>
</svg>
