<?xml version="1.0" encoding="utf-8"?>
<!-- Generator: Adobe Illustrator 16.0.0, SVG Export Plug-In . SVG Version: 6.00 Build 0)  -->
<!DOCTYPE svg PUBLIC "-//W3C//DTD SVG 1.1//EN" "http://www.w3.org/Graphics/SVG/1.1/DTD/svg11.dtd">
<svg version="1.1" id="Layer_1" xmlns="http://www.w3.org/2000/svg" xmlns:xlink="http://www.w3.org/1999/xlink" x="0px" y="0px"
	 width="64px" height="64px" viewBox="0 0 64 64" enable-background="new 0 0 64 64" xml:space="preserve">
<g>
	<g>
		<g>
			<path fill-rule="evenodd" clip-rule="evenodd" d="M21.228,15.369c-0.48-0.313-0.893-0.721-1.209-1.2l-7.717,8.896l3.217-1.112
				L21.228,15.369z M36.42,14.731l3.216-1.111l-12.031-2.325c0.027,0.191,0.059,0.384,0.059,0.584c0,0.394-0.072,0.766-0.173,1.127
				L36.42,14.731z M18.242,33.506c-2.645,0.899-3.929,3.439-3.033,6.071c0.895,2.631,3.459,3.861,6.104,2.962
				c2.633-0.895,3.916-3.434,3.021-6.064C23.438,33.843,20.873,32.611,18.242,33.506z M20.751,40.89
				c-1.623,0.553-3.081-0.339-3.632-1.963c-0.557-1.637,0.06-3.219,1.683-3.771c1.61-0.548,3.063,0.332,3.619,1.969
				C22.973,38.747,22.363,40.344,20.751,40.89z M28.236,30.27l-4.084,1.389l2.969,8.732l1.859-0.633l-1.06-3.115l2.225-0.758
				c1.886-0.641,2.498-2.28,1.98-3.798C31.605,30.555,30.134,29.623,28.236,30.27z M29.327,34.338l-1.963,0.668l-0.798-2.344
				l1.965-0.668c0.732-0.249,1.447,0.004,1.696,0.737C30.471,33.452,30.06,34.089,29.327,34.338z M45.916,24.257l1.866,5.486
				l-5.911-4.11l-1.911,0.649l2.97,8.732l1.858-0.632l-1.937-5.694l6.1,4.279l1.793-0.61l-2.969-8.732L45.916,24.257z
				 M60.104,34.346l-5.8-17.611c-1.009-3.063-4.321-4.734-7.386-3.727L7.622,25.949c-3.063,1.01-4.734,4.322-3.725,7.386
				l5.799,17.61c1.009,3.064,4.322,4.735,7.386,3.728l39.296-12.941C59.441,40.722,61.112,37.408,60.104,34.346z M55.679,39.607
				L16.382,52.55c-1.894,0.624-3.986-0.395-4.61-2.287L5.973,32.651c-0.623-1.894,0.455-3.955,2.348-4.58l39.296-12.94
				c1.894-0.624,3.986,0.395,4.61,2.287l5.799,17.61C58.65,36.923,57.572,38.984,55.679,39.607z M36.603,35.341l-0.677-1.99
				l4.229-1.438l-0.557-1.637l-4.229,1.438l-0.623-1.833l4.32-1.469l-0.557-1.637l-6.179,2.102l2.969,8.732l6.179-2.102
				l-0.557-1.636L36.603,35.341z M23.495,14.717c1.569,0,2.841-1.272,2.841-2.842c0-1.568-1.271-2.841-2.841-2.841
				s-2.841,1.272-2.841,2.841C20.654,13.444,21.925,14.717,23.495,14.717z" fill="#ffffff"/>
		</g>
	</g>
</g>
</svg>
